<?xml version="1.0" encoding="utf-8" standalone="no"?>
<!DOCTYPE svg PUBLIC "-//W3C//DTD SVG 1.1//EN"
  "http://www.w3.org/Graphics/SVG/1.1/DTD/svg11.dtd">
<svg xmlns:xlink="http://www.w3.org/1999/xlink" width="711.36pt" height="483.3585pt" viewBox="0 0 711.36 483.3585" xmlns="http://www.w3.org/2000/svg" version="1.1">
 <metadata>
  <rdf:RDF xmlns:dc="http://purl.org/dc/elements/1.1/" xmlns:cc="http://creativecommons.org/ns#" xmlns:rdf="http://www.w3.org/1999/02/22-rdf-syntax-ns#">
   <cc:Work>
    <dc:type rdf:resource="http://purl.org/dc/dcmitype/StillImage"/>
    <dc:date>2026-04-17T00:02:57.641607</dc:date>
    <dc:format>image/svg+xml</dc:format>
    <dc:creator>
     <cc:Agent>
      <dc:title>Matplotlib v3.9.4, https://matplotlib.org/</dc:title>
     </cc:Agent>
    </dc:creator>
   </cc:Work>
  </rdf:RDF>
 </metadata>
 <defs>
  <style type="text/css">*{stroke-linejoin: round; stroke-linecap: butt}</style>
 </defs>
 <g id="figure_1">
  <g id="patch_1">
   <path d="M 0 483.3585 
L 711.36 483.3585 
L 711.36 0 
L 0 0 
z
" style="fill: #fbf7f1"/>
  </g>
  <g id="axes_1">
   <g id="patch_2">
    <path d="M 126 429.6945 
L 704.16 429.6945 
L 704.16 97.9185 
L 126 97.9185 
z
" style="fill: #fbf7f1"/>
   </g>
   <g id="patch_3">
    <path d="M 143.290766 182.7057 
L 681.465869 182.7057 
Q 690.111252 182.7057 690.111252 176.80746 
L 690.111252 129.62154 
Q 690.111252 123.7233 681.465869 123.7233 
L 143.290766 123.7233 
Q 134.645383 123.7233 134.645383 129.62154 
L 134.645383 176.80746 
Q 134.645383 182.7057 143.290766 182.7057 
z
" clip-path="url(#p0dfc51d7bf)" style="fill: #fffdf9"/>
   </g>
   <g id="patch_4">
    <path d="M 143.290766 256.4337 
L 681.465869 256.4337 
Q 690.111252 256.4337 690.111252 250.53546 
L 690.111252 203.34954 
Q 690.111252 197.4513 681.465869 197.4513 
L 143.290766 197.4513 
Q 134.645383 197.4513 134.645383 203.34954 
L 134.645383 250.53546 
Q 134.645383 256.4337 143.290766 256.4337 
z
" clip-path="url(#p0dfc51d7bf)" style="fill: #fffdf9"/>
   </g>
   <g id="patch_5">
    <path d="M 143.290766 330.1617 
L 681.465869 330.1617 
Q 690.111252 330.1617 690.111252 324.26346 
L 690.111252 277.07754 
Q 690.111252 271.1793 681.465869 271.1793 
L 143.290766 271.1793 
Q 134.645383 271.1793 134.645383 277.07754 
L 134.645383 324.26346 
Q 134.645383 330.1617 143.290766 330.1617 
z
" clip-path="url(#p0dfc51d7bf)" style="fill: #fffdf9"/>
   </g>
   <g id="patch_6">
    <path d="M 143.290766 403.8897 
L 681.465869 403.8897 
Q 690.111252 403.8897 690.111252 397.99146 
L 690.111252 350.80554 
Q 690.111252 344.9073 681.465869 344.9073 
L 143.290766 344.9073 
Q 134.645383 344.9073 134.645383 350.80554 
L 134.645383 397.99146 
Q 134.645383 403.8897 143.290766 403.8897 
z
" clip-path="url(#p0dfc51d7bf)" style="fill: #fffdf9"/>
   </g>
   <g id="line2d_1">
    <path d="M 126 429.6945 
L 126 97.9185 
" clip-path="url(#p0dfc51d7bf)" style="fill: none; stroke: #e8ded1; stroke-linecap: square"/>
   </g>
   <g id="line2d_2">
    <path d="M 234.06729 429.6945 
L 234.06729 97.9185 
" clip-path="url(#p0dfc51d7bf)" style="fill: none; stroke: #e8ded1; stroke-linecap: square"/>
   </g>
   <g id="line2d_3">
    <path d="M 342.134579 429.6945 
L 342.134579 97.9185 
" clip-path="url(#p0dfc51d7bf)" style="fill: none; stroke: #e8ded1; stroke-linecap: square"/>
   </g>
   <g id="line2d_4">
    <path d="M 450.201869 429.6945 
L 450.201869 97.9185 
" clip-path="url(#p0dfc51d7bf)" style="fill: none; stroke: #e8ded1; stroke-linecap: square"/>
   </g>
   <g id="line2d_5">
    <path d="M 558.269159 429.6945 
L 558.269159 97.9185 
" clip-path="url(#p0dfc51d7bf)" style="fill: none; stroke: #e8ded1; stroke-linecap: square"/>
   </g>
   <g id="line2d_6">
    <path d="M 666.336449 429.6945 
L 666.336449 97.9185 
" clip-path="url(#p0dfc51d7bf)" style="fill: none; stroke: #e8ded1; stroke-linecap: square"/>
   </g>
   <g id="matplotlib.axis_1">
    <g id="xtick_1">
     <g id="line2d_7"/>
     <g id="text_1">
      <!-- 0 -->
      <g style="fill: #6e6259" transform="translate(122.447344 441.509812) scale(0.11 -0.11)">
       <defs>
        <path id="AvenirNext-Bold-30" d="M 3840 2278 
Q 3840 1798 3744 1363 
Q 3648 928 3437 598 
Q 3226 269 2890 73 
Q 2554 -122 2074 -122 
Q 1594 -122 1254 73 
Q 915 269 700 598 
Q 486 928 390 1363 
Q 294 1798 294 2278 
Q 294 2758 390 3190 
Q 486 3622 700 3945 
Q 915 4269 1254 4461 
Q 1594 4653 2074 4653 
Q 2554 4653 2890 4461 
Q 3226 4269 3437 3945 
Q 3648 3622 3744 3190 
Q 3840 2758 3840 2278 
z
M 2739 2278 
Q 2739 2490 2713 2746 
Q 2688 3002 2617 3222 
Q 2547 3443 2416 3593 
Q 2285 3744 2074 3744 
Q 1862 3744 1728 3593 
Q 1594 3443 1520 3222 
Q 1446 3002 1420 2746 
Q 1395 2490 1395 2278 
Q 1395 2061 1420 1801 
Q 1446 1542 1520 1321 
Q 1594 1101 1728 950 
Q 1862 800 2074 800 
Q 2285 800 2416 950 
Q 2547 1101 2617 1321 
Q 2688 1542 2713 1801 
Q 2739 2061 2739 2278 
z
" transform="scale(0.015625)"/>
       </defs>
       <use xlink:href="#AvenirNext-Bold-30"/>
      </g>
     </g>
    </g>
    <g id="xtick_2">
     <g id="line2d_8"/>
     <g id="text_2">
      <!-- 1 -->
      <g style="fill: #6e6259" transform="translate(230.514633 441.509812) scale(0.11 -0.11)">
       <defs>
        <path id="AvenirNext-Bold-31" d="M 1811 0 
L 1811 3328 
L 966 2675 
L 410 3437 
L 1901 4531 
L 2886 4531 
L 2886 0 
L 1811 0 
z
" transform="scale(0.015625)"/>
       </defs>
       <use xlink:href="#AvenirNext-Bold-31"/>
      </g>
     </g>
    </g>
    <g id="xtick_3">
     <g id="line2d_9"/>
     <g id="text_3">
      <!-- 2 -->
      <g style="fill: #6e6259" transform="translate(338.581923 441.509812) scale(0.11 -0.11)">
       <defs>
        <path id="AvenirNext-Bold-32" d="M 435 0 
L 435 896 
L 2202 2496 
Q 2368 2656 2470 2822 
Q 2573 2989 2573 3194 
Q 2573 3437 2419 3587 
Q 2266 3738 2010 3738 
Q 1741 3738 1571 3549 
Q 1402 3360 1370 3053 
L 339 3194 
Q 378 3539 528 3808 
Q 678 4077 908 4265 
Q 1139 4454 1436 4553 
Q 1734 4653 2067 4653 
Q 2381 4653 2675 4569 
Q 2970 4486 3200 4313 
Q 3430 4141 3568 3878 
Q 3706 3616 3706 3264 
Q 3706 3021 3642 2825 
Q 3578 2630 3466 2464 
Q 3354 2298 3210 2154 
Q 3066 2010 2912 1869 
L 1862 934 
L 3712 934 
L 3712 0 
L 435 0 
z
" transform="scale(0.015625)"/>
       </defs>
       <use xlink:href="#AvenirNext-Bold-32"/>
      </g>
     </g>
    </g>
    <g id="xtick_4">
     <g id="line2d_10"/>
     <g id="text_4">
      <!-- 3 -->
      <g style="fill: #6e6259" transform="translate(446.649213 441.509812) scale(0.11 -0.11)">
       <defs>
        <path id="AvenirNext-Bold-33" d="M 3731 1318 
Q 3731 947 3580 675 
Q 3430 403 3187 227 
Q 2944 51 2640 -35 
Q 2336 -122 2022 -122 
Q 1715 -122 1424 -51 
Q 1133 19 893 163 
Q 653 307 473 534 
Q 294 762 205 1082 
L 1203 1344 
Q 1267 1120 1465 950 
Q 1664 781 1971 781 
Q 2086 781 2204 813 
Q 2323 845 2416 912 
Q 2509 979 2569 1088 
Q 2630 1197 2630 1357 
Q 2630 1530 2550 1645 
Q 2470 1760 2339 1827 
Q 2208 1894 2041 1923 
Q 1875 1952 1709 1952 
L 1421 1952 
L 1421 2739 
L 1734 2739 
Q 1888 2739 2029 2761 
Q 2170 2784 2282 2845 
Q 2394 2906 2461 3008 
Q 2528 3110 2528 3277 
Q 2528 3520 2355 3648 
Q 2182 3776 1958 3776 
Q 1728 3776 1558 3638 
Q 1389 3501 1338 3270 
L 339 3501 
Q 422 3789 588 4003 
Q 755 4218 982 4362 
Q 1210 4506 1478 4579 
Q 1747 4653 2029 4653 
Q 2330 4653 2614 4576 
Q 2899 4499 3123 4339 
Q 3347 4179 3484 3939 
Q 3622 3699 3622 3373 
Q 3622 2995 3408 2736 
Q 3194 2477 2861 2387 
L 2861 2368 
Q 3053 2323 3213 2224 
Q 3373 2125 3488 1987 
Q 3603 1850 3667 1680 
Q 3731 1510 3731 1318 
z
" transform="scale(0.015625)"/>
       </defs>
       <use xlink:href="#AvenirNext-Bold-33"/>
      </g>
     </g>
    </g>
    <g id="xtick_5">
     <g id="line2d_11"/>
     <g id="text_5">
      <!-- 4 -->
      <g style="fill: #6e6259" transform="translate(554.716503 441.509812) scale(0.11 -0.11)">
       <defs>
        <path id="AvenirNext-Bold-34" d="M 3296 883 
L 3296 0 
L 2291 0 
L 2291 883 
L 160 883 
L 160 1786 
L 2003 4531 
L 3290 4531 
L 3290 1754 
L 3917 1754 
L 3917 883 
L 3296 883 
z
M 2298 3430 
L 2278 3430 
L 1203 1754 
L 2298 1754 
L 2298 3430 
z
" transform="scale(0.015625)"/>
       </defs>
       <use xlink:href="#AvenirNext-Bold-34"/>
      </g>
     </g>
    </g>
    <g id="xtick_6">
     <g id="line2d_12"/>
     <g id="text_6">
      <!-- 5 -->
      <g style="fill: #6e6259" transform="translate(662.783792 441.509812) scale(0.11 -0.11)">
       <defs>
        <path id="AvenirNext-Bold-35" d="M 3725 1498 
Q 3725 1082 3577 778 
Q 3430 474 3184 275 
Q 2938 77 2624 -22 
Q 2310 -122 1978 -122 
Q 1670 -122 1392 -42 
Q 1114 38 886 185 
Q 659 333 496 547 
Q 333 762 256 1030 
L 1235 1331 
Q 1306 1094 1501 940 
Q 1696 787 1965 787 
Q 2240 787 2441 953 
Q 2643 1120 2643 1446 
Q 2643 1645 2560 1779 
Q 2477 1914 2345 1994 
Q 2214 2074 2048 2106 
Q 1882 2138 1715 2138 
Q 1472 2138 1161 2083 
Q 851 2029 608 1939 
L 717 4531 
L 3494 4531 
L 3494 3610 
L 1670 3610 
L 1632 2893 
Q 1734 2918 1859 2928 
Q 1984 2938 2086 2938 
Q 2426 2938 2726 2848 
Q 3027 2758 3248 2576 
Q 3469 2394 3597 2125 
Q 3725 1856 3725 1498 
z
" transform="scale(0.015625)"/>
       </defs>
       <use xlink:href="#AvenirNext-Bold-35"/>
      </g>
     </g>
    </g>
    <g id="text_7">
     <!-- Average final score -->
     <g style="fill: #6e6259" transform="translate(359.203125 469.449812) scale(0.12 -0.12)">
      <defs>
       <path id="AvenirNext-Bold-41" d="M 3539 0 
L 3187 890 
L 1434 890 
L 1101 0 
L -90 0 
L 1811 4531 
L 2874 4531 
L 4755 0 
L 3539 0 
z
M 2323 3322 
L 1747 1766 
L 2886 1766 
L 2323 3322 
z
" transform="scale(0.015625)"/>
       <path id="AvenirNext-Bold-76" d="M 2381 0 
L 1248 0 
L -6 3187 
L 1152 3187 
L 1824 1120 
L 1843 1120 
L 2515 3187 
L 3635 3187 
L 2381 0 
z
" transform="scale(0.015625)"/>
       <path id="AvenirNext-Bold-65" d="M 2605 1958 
Q 2605 2208 2448 2387 
Q 2291 2566 1978 2566 
Q 1824 2566 1696 2518 
Q 1568 2470 1472 2387 
Q 1376 2304 1318 2192 
Q 1261 2080 1254 1958 
L 2605 1958 
z
M 3571 1555 
Q 3571 1491 3571 1427 
Q 3571 1363 3565 1306 
L 1254 1306 
Q 1267 1171 1334 1062 
Q 1402 954 1507 874 
Q 1613 794 1744 749 
Q 1875 704 2016 704 
Q 2266 704 2438 797 
Q 2611 890 2720 1037 
L 3450 576 
Q 3226 250 2858 74 
Q 2490 -102 2003 -102 
Q 1645 -102 1325 10 
Q 1005 122 765 336 
Q 525 550 387 864 
Q 250 1178 250 1581 
Q 250 1971 384 2288 
Q 518 2605 748 2825 
Q 979 3046 1292 3168 
Q 1606 3290 1971 3290 
Q 2323 3290 2617 3171 
Q 2912 3053 3123 2829 
Q 3334 2605 3452 2285 
Q 3571 1965 3571 1555 
z
" transform="scale(0.015625)"/>
       <path id="AvenirNext-Bold-72" d="M 2477 2330 
Q 2406 2349 2339 2355 
Q 2272 2362 2208 2362 
Q 1997 2362 1853 2285 
Q 1709 2208 1622 2099 
Q 1536 1990 1497 1862 
Q 1459 1734 1459 1638 
L 1459 0 
L 410 0 
L 410 3187 
L 1421 3187 
L 1421 2726 
L 1434 2726 
Q 1555 2970 1779 3123 
Q 2003 3277 2298 3277 
Q 2362 3277 2422 3270 
Q 2483 3264 2522 3251 
L 2477 2330 
z
" transform="scale(0.015625)"/>
       <path id="AvenirNext-Bold-61" d="M 2291 1389 
L 2157 1389 
Q 1984 1389 1808 1373 
Q 1632 1357 1494 1312 
Q 1357 1267 1267 1180 
Q 1178 1094 1178 954 
Q 1178 864 1219 800 
Q 1261 736 1325 697 
Q 1389 659 1472 643 
Q 1555 627 1632 627 
Q 1952 627 2121 803 
Q 2291 979 2291 1280 
L 2291 1389 
z
M 365 2752 
Q 646 3021 1020 3155 
Q 1395 3290 1786 3290 
Q 2189 3290 2467 3190 
Q 2746 3091 2918 2883 
Q 3091 2675 3171 2358 
Q 3251 2042 3251 1606 
L 3251 0 
L 2291 0 
L 2291 339 
L 2272 339 
Q 2150 141 1904 32 
Q 1658 -77 1370 -77 
Q 1178 -77 973 -25 
Q 768 26 598 141 
Q 429 256 320 448 
Q 211 640 211 922 
Q 211 1267 400 1478 
Q 589 1690 886 1805 
Q 1184 1920 1549 1958 
Q 1914 1997 2259 1997 
L 2259 2048 
Q 2259 2285 2092 2397 
Q 1926 2509 1683 2509 
Q 1459 2509 1251 2413 
Q 1043 2317 896 2182 
L 365 2752 
z
" transform="scale(0.015625)"/>
       <path id="AvenirNext-Bold-67" d="M 3789 301 
Q 3789 -166 3654 -512 
Q 3520 -858 3277 -1085 
Q 3034 -1312 2685 -1424 
Q 2336 -1536 1914 -1536 
Q 1491 -1536 1046 -1408 
Q 602 -1280 275 -1037 
L 800 -288 
Q 1030 -493 1308 -592 
Q 1587 -691 1856 -691 
Q 2317 -691 2537 -448 
Q 2758 -205 2758 198 
L 2758 390 
L 2739 390 
Q 2592 198 2342 83 
Q 2093 -32 1773 -32 
Q 1408 -32 1126 99 
Q 845 230 649 454 
Q 454 678 352 976 
Q 250 1274 250 1606 
Q 250 1939 352 2240 
Q 454 2541 649 2771 
Q 845 3002 1126 3139 
Q 1408 3277 1766 3277 
Q 2067 3277 2342 3155 
Q 2618 3034 2784 2778 
L 2797 2778 
L 2797 3187 
L 3789 3187 
L 3789 301 
z
M 2790 1613 
Q 2790 1773 2736 1920 
Q 2682 2067 2579 2179 
Q 2477 2291 2336 2355 
Q 2195 2419 2016 2419 
Q 1837 2419 1699 2355 
Q 1562 2291 1466 2182 
Q 1370 2074 1318 1926 
Q 1267 1779 1267 1613 
Q 1267 1453 1318 1305 
Q 1370 1158 1466 1046 
Q 1562 934 1699 867 
Q 1837 800 2016 800 
Q 2195 800 2339 867 
Q 2483 934 2582 1043 
Q 2682 1152 2736 1299 
Q 2790 1446 2790 1613 
z
" transform="scale(0.015625)"/>
       <path id="AvenirNext-Bold-20" transform="scale(0.015625)"/>
       <path id="AvenirNext-Bold-66" d="M 2387 4064 
Q 2330 4083 2253 4096 
Q 2176 4109 2099 4109 
Q 1952 4109 1862 4057 
Q 1773 4006 1721 3920 
Q 1670 3834 1651 3725 
Q 1632 3616 1632 3507 
L 1632 3187 
L 2342 3187 
L 2342 2400 
L 1632 2400 
L 1632 0 
L 582 0 
L 582 2400 
L 0 2400 
L 0 3187 
L 582 3187 
L 582 3494 
Q 582 3789 646 4054 
Q 710 4320 867 4521 
Q 1024 4723 1289 4841 
Q 1555 4960 1952 4960 
Q 2086 4960 2217 4944 
Q 2349 4928 2458 4896 
L 2387 4064 
z
" transform="scale(0.015625)"/>
       <path id="AvenirNext-Bold-69" d="M 1549 4205 
Q 1549 4083 1501 3977 
Q 1453 3872 1373 3795 
Q 1293 3718 1181 3673 
Q 1069 3629 947 3629 
Q 691 3629 518 3798 
Q 346 3968 346 4205 
Q 346 4320 390 4425 
Q 435 4531 518 4608 
Q 602 4685 710 4733 
Q 819 4781 947 4781 
Q 1069 4781 1181 4736 
Q 1293 4691 1373 4614 
Q 1453 4538 1501 4432 
Q 1549 4326 1549 4205 
z
M 422 0 
L 422 3187 
L 1472 3187 
L 1472 0 
L 422 0 
z
" transform="scale(0.015625)"/>
       <path id="AvenirNext-Bold-6e" d="M 2502 0 
L 2502 1741 
Q 2502 1875 2480 1996 
Q 2458 2118 2406 2211 
Q 2355 2304 2262 2358 
Q 2170 2413 2029 2413 
Q 1888 2413 1782 2358 
Q 1677 2304 1606 2208 
Q 1536 2112 1501 1987 
Q 1466 1862 1466 1728 
L 1466 0 
L 410 0 
L 410 3187 
L 1427 3187 
L 1427 2746 
L 1440 2746 
Q 1498 2848 1590 2947 
Q 1683 3046 1808 3116 
Q 1933 3187 2080 3232 
Q 2227 3277 2394 3277 
Q 2714 3277 2938 3161 
Q 3162 3046 3299 2864 
Q 3437 2682 3497 2445 
Q 3558 2208 3558 1971 
L 3558 0 
L 2502 0 
z
" transform="scale(0.015625)"/>
       <path id="AvenirNext-Bold-6c" d="M 422 0 
L 422 4838 
L 1485 4838 
L 1485 0 
L 422 0 
z
" transform="scale(0.015625)"/>
       <path id="AvenirNext-Bold-73" d="M 2285 2246 
Q 2157 2368 1984 2451 
Q 1811 2534 1619 2534 
Q 1472 2534 1347 2476 
Q 1222 2419 1222 2278 
Q 1222 2144 1360 2086 
Q 1498 2029 1805 1958 
Q 1984 1920 2166 1849 
Q 2349 1779 2496 1664 
Q 2643 1549 2732 1382 
Q 2822 1216 2822 986 
Q 2822 685 2700 477 
Q 2579 269 2384 141 
Q 2189 13 1945 -44 
Q 1702 -102 1459 -102 
Q 1069 -102 694 22 
Q 320 147 70 390 
L 659 1011 
Q 800 858 1005 755 
Q 1210 653 1440 653 
Q 1568 653 1693 713 
Q 1818 774 1818 928 
Q 1818 1075 1664 1145 
Q 1510 1216 1184 1293 
Q 1018 1331 851 1395 
Q 685 1459 553 1568 
Q 422 1677 339 1837 
Q 256 1997 256 2221 
Q 256 2509 377 2710 
Q 499 2912 691 3040 
Q 883 3168 1116 3229 
Q 1350 3290 1581 3290 
Q 1939 3290 2281 3178 
Q 2624 3066 2861 2842 
L 2285 2246 
z
" transform="scale(0.015625)"/>
       <path id="AvenirNext-Bold-63" d="M 2605 2157 
Q 2515 2272 2361 2342 
Q 2208 2413 2048 2413 
Q 1882 2413 1747 2345 
Q 1613 2278 1517 2166 
Q 1421 2054 1366 1907 
Q 1312 1760 1312 1594 
Q 1312 1427 1363 1280 
Q 1414 1133 1513 1021 
Q 1613 909 1750 845 
Q 1888 781 2061 781 
Q 2221 781 2377 841 
Q 2534 902 2630 1018 
L 3213 307 
Q 3014 115 2700 6 
Q 2387 -102 2035 -102 
Q 1658 -102 1331 13 
Q 1005 128 765 349 
Q 525 570 387 883 
Q 250 1197 250 1594 
Q 250 1984 387 2297 
Q 525 2611 765 2832 
Q 1005 3053 1331 3171 
Q 1658 3290 2029 3290 
Q 2202 3290 2371 3258 
Q 2541 3226 2697 3171 
Q 2854 3117 2985 3037 
Q 3117 2957 3213 2861 
L 2605 2157 
z
" transform="scale(0.015625)"/>
       <path id="AvenirNext-Bold-6f" d="M 3789 1606 
Q 3789 1216 3648 899 
Q 3507 582 3264 361 
Q 3021 141 2701 19 
Q 2381 -102 2016 -102 
Q 1658 -102 1334 19 
Q 1011 141 771 361 
Q 531 582 390 899 
Q 250 1216 250 1606 
Q 250 1997 390 2310 
Q 531 2624 771 2841 
Q 1011 3059 1334 3174 
Q 1658 3290 2016 3290 
Q 2381 3290 2701 3174 
Q 3021 3059 3264 2841 
Q 3507 2624 3648 2310 
Q 3789 1997 3789 1606 
z
M 2778 1606 
Q 2778 1760 2726 1907 
Q 2675 2054 2579 2166 
Q 2483 2278 2342 2348 
Q 2202 2419 2016 2419 
Q 1830 2419 1689 2348 
Q 1549 2278 1456 2166 
Q 1363 2054 1315 1907 
Q 1267 1760 1267 1606 
Q 1267 1453 1315 1305 
Q 1363 1158 1459 1040 
Q 1555 922 1696 851 
Q 1837 781 2022 781 
Q 2208 781 2349 851 
Q 2490 922 2586 1040 
Q 2682 1158 2730 1305 
Q 2778 1453 2778 1606 
z
" transform="scale(0.015625)"/>
      </defs>
      <use xlink:href="#AvenirNext-Bold-41"/>
      <use xlink:href="#AvenirNext-Bold-76" x="72.899994"/>
      <use xlink:href="#AvenirNext-Bold-65" x="129.599991"/>
      <use xlink:href="#AvenirNext-Bold-72" x="189.199982"/>
      <use xlink:href="#AvenirNext-Bold-61" x="227.174973"/>
      <use xlink:href="#AvenirNext-Bold-67" x="283.774963"/>
      <use xlink:href="#AvenirNext-Bold-65" x="349.574951"/>
      <use xlink:href="#AvenirNext-Bold-20" x="409.174942"/>
      <use xlink:href="#AvenirNext-Bold-66" x="434.174927"/>
      <use xlink:href="#AvenirNext-Bold-69" x="470.574921"/>
      <use xlink:href="#AvenirNext-Bold-6e" x="500.174911"/>
      <use xlink:href="#AvenirNext-Bold-61" x="561.774902"/>
      <use xlink:href="#AvenirNext-Bold-6c" x="618.374893"/>
      <use xlink:href="#AvenirNext-Bold-20" x="648.174881"/>
      <use xlink:href="#AvenirNext-Bold-73" x="673.174866"/>
      <use xlink:href="#AvenirNext-Bold-63" x="720.374863"/>
      <use xlink:href="#AvenirNext-Bold-6f" x="770.67485"/>
      <use xlink:href="#AvenirNext-Bold-72" x="833.874847"/>
      <use xlink:href="#AvenirNext-Bold-65" x="871.724838"/>
     </g>
    </g>
   </g>
   <g id="matplotlib.axis_2">
    <g id="ytick_1">
     <g id="line2d_13"/>
     <g id="text_8">
      <!-- Simple -->
      <g style="fill: #6e6259" transform="translate(78.795625 158.128094) scale(0.13 -0.13)">
       <defs>
        <path id="AvenirNext-Bold-53" d="M 2861 3354 
Q 2720 3533 2493 3638 
Q 2266 3744 2054 3744 
Q 1946 3744 1834 3725 
Q 1722 3706 1632 3651 
Q 1542 3597 1481 3510 
Q 1421 3424 1421 3290 
Q 1421 3174 1469 3097 
Q 1517 3021 1609 2963 
Q 1702 2906 1830 2858 
Q 1958 2810 2118 2758 
Q 2349 2682 2598 2589 
Q 2848 2496 3053 2342 
Q 3258 2189 3392 1961 
Q 3526 1734 3526 1395 
Q 3526 1005 3382 720 
Q 3238 435 2995 249 
Q 2752 64 2438 -25 
Q 2125 -115 1792 -115 
Q 1306 -115 851 54 
Q 397 224 96 538 
L 813 1267 
Q 979 1062 1251 924 
Q 1523 787 1792 787 
Q 1914 787 2029 812 
Q 2144 838 2230 896 
Q 2317 954 2368 1050 
Q 2419 1146 2419 1280 
Q 2419 1408 2355 1497 
Q 2291 1587 2172 1660 
Q 2054 1734 1878 1795 
Q 1702 1856 1478 1926 
Q 1261 1997 1053 2093 
Q 845 2189 681 2339 
Q 518 2490 419 2704 
Q 320 2918 320 3226 
Q 320 3603 473 3872 
Q 627 4141 876 4313 
Q 1126 4486 1440 4566 
Q 1754 4646 2074 4646 
Q 2458 4646 2858 4505 
Q 3258 4365 3558 4090 
L 2861 3354 
z
" transform="scale(0.015625)"/>
        <path id="AvenirNext-Bold-6d" d="M 4480 0 
L 4480 1741 
Q 4480 1875 4461 2000 
Q 4442 2125 4390 2214 
Q 4339 2304 4252 2358 
Q 4166 2413 4026 2413 
Q 3891 2413 3792 2355 
Q 3693 2298 3625 2202 
Q 3558 2106 3526 1981 
Q 3494 1856 3494 1722 
L 3494 0 
L 2445 0 
L 2445 1818 
Q 2445 2093 2336 2253 
Q 2227 2413 1990 2413 
Q 1741 2413 1603 2214 
Q 1466 2016 1466 1728 
L 1466 0 
L 410 0 
L 410 3187 
L 1427 3187 
L 1427 2746 
L 1440 2746 
Q 1498 2848 1584 2944 
Q 1670 3040 1792 3113 
Q 1914 3187 2064 3232 
Q 2214 3277 2394 3277 
Q 2739 3277 2979 3136 
Q 3219 2995 3354 2733 
Q 3514 2982 3763 3129 
Q 4013 3277 4371 3277 
Q 4698 3277 4918 3158 
Q 5139 3040 5273 2851 
Q 5408 2662 5469 2428 
Q 5530 2195 5530 1971 
L 5530 0 
L 4480 0 
z
" transform="scale(0.015625)"/>
        <path id="AvenirNext-Bold-70" d="M 3955 1606 
Q 3955 1274 3852 966 
Q 3750 659 3555 425 
Q 3360 192 3078 51 
Q 2797 -90 2438 -90 
Q 2144 -90 1881 28 
Q 1619 147 1472 352 
L 1459 352 
L 1459 -1536 
L 410 -1536 
L 410 3187 
L 1408 3187 
L 1408 2797 
L 1427 2797 
Q 1574 2989 1833 3133 
Q 2093 3277 2445 3277 
Q 2790 3277 3072 3142 
Q 3354 3008 3549 2777 
Q 3744 2547 3849 2243 
Q 3955 1939 3955 1606 
z
M 2938 1606 
Q 2938 1760 2890 1907 
Q 2842 2054 2749 2166 
Q 2656 2278 2515 2348 
Q 2374 2419 2189 2419 
Q 2010 2419 1869 2348 
Q 1728 2278 1629 2163 
Q 1530 2048 1475 1901 
Q 1421 1754 1421 1600 
Q 1421 1446 1475 1299 
Q 1530 1152 1629 1037 
Q 1728 922 1869 851 
Q 2010 781 2189 781 
Q 2374 781 2515 851 
Q 2656 922 2749 1037 
Q 2842 1152 2890 1302 
Q 2938 1453 2938 1606 
z
" transform="scale(0.015625)"/>
       </defs>
       <use xlink:href="#AvenirNext-Bold-53"/>
       <use xlink:href="#AvenirNext-Bold-69" x="59.099991"/>
       <use xlink:href="#AvenirNext-Bold-6d" x="88.699982"/>
       <use xlink:href="#AvenirNext-Bold-70" x="181.099976"/>
       <use xlink:href="#AvenirNext-Bold-6c" x="246.799973"/>
       <use xlink:href="#AvenirNext-Bold-65" x="276.59996"/>
      </g>
     </g>
    </g>
    <g id="ytick_2">
     <g id="line2d_14"/>
     <g id="text_9">
      <!-- Medium -->
      <g style="fill: #6e6259" transform="translate(69.941406 231.856094) scale(0.13 -0.13)">
       <defs>
        <path id="AvenirNext-Bold-4d" d="M 4576 0 
L 4602 3206 
L 4582 3206 
L 3405 0 
L 2637 0 
L 1491 3206 
L 1472 3206 
L 1498 0 
L 467 0 
L 467 4531 
L 2022 4531 
L 3053 1626 
L 3078 1626 
L 4064 4531 
L 5645 4531 
L 5645 0 
L 4576 0 
z
" transform="scale(0.015625)"/>
        <path id="AvenirNext-Bold-64" d="M 2822 0 
L 2822 416 
L 2810 416 
Q 2656 173 2371 41 
Q 2086 -90 1766 -90 
Q 1408 -90 1126 51 
Q 845 192 649 425 
Q 454 659 352 966 
Q 250 1274 250 1606 
Q 250 1939 355 2243 
Q 461 2547 656 2777 
Q 851 3008 1129 3142 
Q 1408 3277 1754 3277 
Q 2106 3277 2349 3142 
Q 2592 3008 2726 2848 
L 2739 2848 
L 2739 4838 
L 3789 4838 
L 3789 0 
L 2822 0 
z
M 2784 1600 
Q 2784 1754 2729 1901 
Q 2675 2048 2576 2163 
Q 2477 2278 2336 2348 
Q 2195 2419 2016 2419 
Q 1830 2419 1689 2348 
Q 1549 2278 1453 2166 
Q 1357 2054 1309 1907 
Q 1261 1760 1261 1606 
Q 1261 1453 1309 1302 
Q 1357 1152 1453 1037 
Q 1549 922 1689 851 
Q 1830 781 2016 781 
Q 2195 781 2336 851 
Q 2477 922 2576 1037 
Q 2675 1152 2729 1299 
Q 2784 1446 2784 1600 
z
" transform="scale(0.015625)"/>
        <path id="AvenirNext-Bold-75" d="M 2509 0 
L 2509 442 
L 2496 442 
Q 2438 333 2345 237 
Q 2253 141 2128 70 
Q 2003 0 1852 -45 
Q 1702 -90 1536 -90 
Q 1216 -90 995 25 
Q 774 141 636 323 
Q 499 506 438 739 
Q 378 973 378 1216 
L 378 3187 
L 1434 3187 
L 1434 1459 
Q 1434 1325 1453 1203 
Q 1472 1082 1526 986 
Q 1581 890 1670 835 
Q 1760 781 1907 781 
Q 2182 781 2326 985 
Q 2470 1190 2470 1466 
L 2470 3187 
L 3520 3187 
L 3520 0 
L 2509 0 
z
" transform="scale(0.015625)"/>
       </defs>
       <use xlink:href="#AvenirNext-Bold-4d"/>
       <use xlink:href="#AvenirNext-Bold-65" x="95.499985"/>
       <use xlink:href="#AvenirNext-Bold-64" x="155.099976"/>
       <use xlink:href="#AvenirNext-Bold-69" x="220.899963"/>
       <use xlink:href="#AvenirNext-Bold-75" x="250.499954"/>
       <use xlink:href="#AvenirNext-Bold-6d" x="311.899948"/>
      </g>
     </g>
    </g>
    <g id="ytick_3">
     <g id="line2d_15"/>
     <g id="text_10">
      <!-- Complex -->
      <g style="fill: #6e6259" transform="translate(65.631094 305.584094) scale(0.13 -0.13)">
       <defs>
        <path id="AvenirNext-Bold-43" d="M 4454 627 
Q 4154 282 3712 80 
Q 3270 -122 2694 -122 
Q 2170 -122 1725 51 
Q 1280 224 953 541 
Q 627 858 441 1299 
Q 256 1741 256 2272 
Q 256 2816 445 3257 
Q 634 3699 966 4009 
Q 1299 4320 1747 4486 
Q 2195 4653 2714 4653 
Q 3194 4653 3658 4483 
Q 4122 4314 4410 3987 
L 3667 3245 
Q 3514 3456 3264 3558 
Q 3014 3661 2752 3661 
Q 2464 3661 2224 3555 
Q 1984 3450 1811 3264 
Q 1638 3078 1542 2825 
Q 1446 2573 1446 2272 
Q 1446 1965 1542 1709 
Q 1638 1453 1808 1270 
Q 1978 1088 2214 985 
Q 2451 883 2733 883 
Q 3059 883 3302 1011 
Q 3546 1139 3693 1344 
L 4454 627 
L 4454 627 
z
" transform="scale(0.015625)"/>
        <path id="AvenirNext-Bold-78" d="M 2586 0 
L 1901 979 
L 1197 0 
L -19 0 
L 1254 1670 
L 102 3187 
L 1325 3187 
L 1920 2336 
L 2522 3187 
L 3706 3187 
L 2560 1670 
L 3821 0 
L 2586 0 
z
" transform="scale(0.015625)"/>
       </defs>
       <use xlink:href="#AvenirNext-Bold-43"/>
       <use xlink:href="#AvenirNext-Bold-6f" x="69.599991"/>
       <use xlink:href="#AvenirNext-Bold-6d" x="132.799988"/>
       <use xlink:href="#AvenirNext-Bold-70" x="225.199982"/>
       <use xlink:href="#AvenirNext-Bold-6c" x="290.899979"/>
       <use xlink:href="#AvenirNext-Bold-65" x="320.699966"/>
       <use xlink:href="#AvenirNext-Bold-78" x="378.049957"/>
      </g>
     </g>
    </g>
    <g id="ytick_4">
     <g id="line2d_16"/>
     <g id="text_11">
      <!-- Security -->
      <g style="fill: #6e6259" transform="translate(71.347031 379.312094) scale(0.13 -0.13)">
       <defs>
        <path id="AvenirNext-Bold-74" d="M 1549 2400 
L 1549 1184 
Q 1549 960 1635 848 
Q 1722 736 1946 736 
Q 2022 736 2108 749 
Q 2195 762 2253 787 
L 2266 19 
Q 2157 -19 1990 -48 
Q 1824 -77 1658 -77 
Q 1338 -77 1120 3 
Q 902 83 771 233 
Q 640 384 582 592 
Q 525 800 525 1056 
L 525 2400 
L 13 2400 
L 13 3187 
L 518 3187 
L 518 4026 
L 1549 4026 
L 1549 3187 
L 2298 3187 
L 2298 2400 
L 1549 2400 
z
" transform="scale(0.015625)"/>
        <path id="AvenirNext-Bold-79" d="M 2208 -480 
Q 2112 -730 1993 -925 
Q 1875 -1120 1712 -1257 
Q 1549 -1395 1328 -1465 
Q 1107 -1536 806 -1536 
Q 659 -1536 502 -1517 
Q 346 -1498 230 -1466 
L 346 -582 
Q 422 -608 515 -624 
Q 608 -640 685 -640 
Q 928 -640 1037 -528 
Q 1146 -416 1222 -211 
L 1325 51 
L -6 3187 
L 1158 3187 
L 1869 1139 
L 1888 1139 
L 2522 3187 
L 3635 3187 
L 2208 -480 
z
" transform="scale(0.015625)"/>
       </defs>
       <use xlink:href="#AvenirNext-Bold-53"/>
       <use xlink:href="#AvenirNext-Bold-65" x="59.099991"/>
       <use xlink:href="#AvenirNext-Bold-63" x="118.699982"/>
       <use xlink:href="#AvenirNext-Bold-75" x="168.999969"/>
       <use xlink:href="#AvenirNext-Bold-72" x="230.399963"/>
       <use xlink:href="#AvenirNext-Bold-69" x="269.999954"/>
       <use xlink:href="#AvenirNext-Bold-74" x="299.599945"/>
       <use xlink:href="#AvenirNext-Bold-79" x="336.799942"/>
      </g>
     </g>
    </g>
   </g>
   <g id="line2d_17">
    <path d="M 639.319626 153.2145 
L 666.336449 153.2145 
" clip-path="url(#p0dfc51d7bf)" style="fill: none; stroke: #fcd58a; stroke-width: 8; stroke-linecap: round"/>
   </g>
   <g id="line2d_18">
    <path d="M 558.269159 226.9425 
L 666.336449 226.9425 
" clip-path="url(#p0dfc51d7bf)" style="fill: none; stroke: #fcd58a; stroke-width: 8; stroke-linecap: round"/>
   </g>
   <g id="line2d_19">
    <path d="M 558.269159 300.6705 
L 630.314019 300.6705 
" clip-path="url(#p0dfc51d7bf)" style="fill: none; stroke: #fcd58a; stroke-width: 8; stroke-linecap: round"/>
   </g>
   <g id="line2d_20">
    <path d="M 579.882617 374.3985 
L 644.722991 374.3985 
" clip-path="url(#p0dfc51d7bf)" style="fill: none; stroke: #fcd58a; stroke-width: 8; stroke-linecap: round"/>
   </g>
   <g id="PathCollection_1">
    <defs>
     <path id="m866b7040f3" d="M 0 7.582875 
C 2.011002 7.582875 3.939909 6.783896 5.361903 5.361903 
C 6.783896 3.939909 7.582875 2.011002 7.582875 0 
C 7.582875 -2.011002 6.783896 -3.939909 5.361903 -5.361903 
C 3.939909 -6.783896 2.011002 -7.582875 0 -7.582875 
C -2.011002 -7.582875 -3.939909 -6.783896 -5.361903 -5.361903 
C -6.783896 -3.939909 -7.582875 -2.011002 -7.582875 0 
C -7.582875 2.011002 -6.783896 3.939909 -5.361903 5.361903 
C -3.939909 6.783896 -2.011002 7.582875 0 7.582875 
z
" style="stroke: #fbf7f1; stroke-width: 1.8"/>
    </defs>
    <g clip-path="url(#p0dfc51d7bf)">
     <use xlink:href="#m866b7040f3" x="639.319626" y="153.2145" style="fill: #6b7280; stroke: #fbf7f1; stroke-width: 1.8"/>
    </g>
   </g>
   <g id="PathCollection_2">
    <g clip-path="url(#p0dfc51d7bf)">
     <use xlink:href="#m866b7040f3" x="558.269159" y="226.9425" style="fill: #6b7280; stroke: #fbf7f1; stroke-width: 1.8"/>
    </g>
   </g>
   <g id="PathCollection_3">
    <g clip-path="url(#p0dfc51d7bf)">
     <use xlink:href="#m866b7040f3" x="558.269159" y="300.6705" style="fill: #6b7280; stroke: #fbf7f1; stroke-width: 1.8"/>
    </g>
   </g>
   <g id="PathCollection_4">
    <g clip-path="url(#p0dfc51d7bf)">
     <use xlink:href="#m866b7040f3" x="579.882617" y="374.3985" style="fill: #6b7280; stroke: #fbf7f1; stroke-width: 1.8"/>
    </g>
   </g>
   <g id="PathCollection_5">
    <defs>
     <path id="m9da4a5259e" d="M 0 8.3666 
C 2.218848 8.3666 4.347117 7.485042 5.91608 5.91608 
C 7.485042 4.347117 8.3666 2.218848 8.3666 0 
C 8.3666 -2.218848 7.485042 -4.347117 5.91608 -5.91608 
C 4.347117 -7.485042 2.218848 -8.3666 0 -8.3666 
C -2.218848 -8.3666 -4.347117 -7.485042 -5.91608 -5.91608 
C -7.485042 -4.347117 -8.3666 -2.218848 -8.3666 0 
C -8.3666 2.218848 -7.485042 4.347117 -5.91608 5.91608 
C -4.347117 7.485042 -2.218848 8.3666 0 8.3666 
z
" style="stroke: #fbf7f1; stroke-width: 2.2"/>
    </defs>
    <g clip-path="url(#p0dfc51d7bf)">
     <use xlink:href="#m9da4a5259e" x="666.336449" y="153.2145" style="fill: #f59e0b; stroke: #fbf7f1; stroke-width: 2.2"/>
    </g>
   </g>
   <g id="PathCollection_6">
    <g clip-path="url(#p0dfc51d7bf)">
     <use xlink:href="#m9da4a5259e" x="666.336449" y="226.9425" style="fill: #f59e0b; stroke: #fbf7f1; stroke-width: 2.2"/>
    </g>
   </g>
   <g id="PathCollection_7">
    <g clip-path="url(#p0dfc51d7bf)">
     <use xlink:href="#m9da4a5259e" x="630.314019" y="300.6705" style="fill: #f59e0b; stroke: #fbf7f1; stroke-width: 2.2"/>
    </g>
   </g>
   <g id="PathCollection_8">
    <g clip-path="url(#p0dfc51d7bf)">
     <use xlink:href="#m9da4a5259e" x="644.722991" y="374.3985" style="fill: #f59e0b; stroke: #fbf7f1; stroke-width: 2.2"/>
    </g>
   </g>
   <g id="text_12">
    <!-- 4.75 -->
    <g style="fill: #6b7280" transform="translate(610.457464 170.539787) scale(0.1 -0.1)">
     <defs>
      <path id="AvenirNext-Bold-2e" d="M 1606 563 
Q 1606 294 1417 115 
Q 1229 -64 966 -64 
Q 832 -64 713 -16 
Q 595 32 505 115 
Q 416 198 365 310 
Q 314 422 314 557 
Q 314 685 365 800 
Q 416 915 505 1001 
Q 595 1088 713 1139 
Q 832 1190 966 1190 
Q 1229 1190 1417 1011 
Q 1606 832 1606 563 
z
" transform="scale(0.015625)"/>
      <path id="AvenirNext-Bold-37" d="M 1958 0 
L 710 0 
L 2547 3610 
L 403 3610 
L 403 4531 
L 3693 4531 
L 3693 3674 
L 1958 0 
z
" transform="scale(0.015625)"/>
     </defs>
     <use xlink:href="#AvenirNext-Bold-34"/>
     <use xlink:href="#AvenirNext-Bold-2e" x="64.599991"/>
     <use xlink:href="#AvenirNext-Bold-37" x="94.599976"/>
     <use xlink:href="#AvenirNext-Bold-35" x="159.199966"/>
    </g>
   </g>
   <g id="text_13">
    <!-- 5.00 -->
    <g style="fill: #f59e0b" transform="translate(672.820486 170.539787) scale(0.1 -0.1)">
     <use xlink:href="#AvenirNext-Bold-35"/>
     <use xlink:href="#AvenirNext-Bold-2e" x="64.599991"/>
     <use xlink:href="#AvenirNext-Bold-30" x="94.599976"/>
     <use xlink:href="#AvenirNext-Bold-30" x="159.199966"/>
    </g>
   </g>
   <g id="text_14">
    <g id="patch_7">
     <path d="M 627.015809 162.1395 
L 683.627215 162.1395 
Q 687.302215 162.1395 687.302215 158.4645 
L 687.302215 147.9645 
Q 687.302215 144.2895 683.627215 144.2895 
L 627.015809 144.2895 
Q 623.340809 144.2895 623.340809 147.9645 
L 623.340809 158.4645 
Q 623.340809 162.1395 627.015809 162.1395 
z
" style="fill: #fff1d6"/>
    </g>
    <!-- +5%  |  n=4 -->
    <g style="fill: #231f20" transform="translate(627.015809 155.8395) scale(0.105 -0.105)">
     <defs>
      <path id="AvenirNext-Bold-2b" d="M 2554 1536 
L 2554 198 
L 1722 198 
L 1722 1536 
L 358 1536 
L 358 2342 
L 1715 2342 
L 1715 3680 
L 2547 3680 
L 2547 2342 
L 3910 2342 
L 3910 1536 
L 2554 1536 
z
" transform="scale(0.015625)"/>
      <path id="AvenirNext-Bold-25" d="M 5690 1133 
Q 5690 883 5594 662 
Q 5498 442 5334 278 
Q 5171 115 4947 19 
Q 4723 -77 4474 -77 
Q 4224 -77 4000 19 
Q 3776 115 3613 278 
Q 3450 442 3354 662 
Q 3258 883 3258 1133 
Q 3258 1382 3354 1603 
Q 3450 1824 3613 1987 
Q 3776 2150 4000 2246 
Q 4224 2342 4474 2342 
Q 4723 2342 4947 2246 
Q 5171 2150 5334 1987 
Q 5498 1824 5594 1603 
Q 5690 1382 5690 1133 
z
M 4973 1133 
Q 4973 1235 4931 1328 
Q 4890 1421 4822 1488 
Q 4755 1555 4665 1593 
Q 4576 1632 4474 1632 
Q 4269 1632 4121 1485 
Q 3974 1338 3974 1133 
Q 3974 928 4121 784 
Q 4269 640 4474 640 
Q 4576 640 4665 678 
Q 4755 717 4822 784 
Q 4890 851 4931 940 
Q 4973 1030 4973 1133 
z
M 2618 3398 
Q 2618 3149 2522 2928 
Q 2426 2707 2262 2544 
Q 2099 2381 1875 2285 
Q 1651 2189 1402 2189 
Q 1152 2189 928 2285 
Q 704 2381 541 2544 
Q 378 2707 282 2928 
Q 186 3149 186 3398 
Q 186 3654 282 3875 
Q 378 4096 541 4259 
Q 704 4422 928 4515 
Q 1152 4608 1402 4608 
Q 1651 4608 1875 4515 
Q 2099 4422 2262 4259 
Q 2426 4096 2522 3875 
Q 2618 3654 2618 3398 
z
M 1901 3398 
Q 1901 3603 1753 3750 
Q 1606 3898 1402 3898 
Q 1197 3898 1049 3750 
Q 902 3603 902 3398 
Q 902 3194 1049 3050 
Q 1197 2906 1402 2906 
Q 1606 2906 1753 3050 
Q 1901 3194 1901 3398 
z
M 1894 -218 
L 1325 64 
L 3968 4736 
L 4563 4448 
L 1894 -218 
z
" transform="scale(0.015625)"/>
      <path id="AvenirNext-Bold-7c" d="M 358 -1600 
L 352 4800 
L 1190 4800 
L 1190 -1600 
L 358 -1600 
z
" transform="scale(0.015625)"/>
      <path id="AvenirNext-Bold-3d" d="M 435 2144 
L 435 2931 
L 3827 2931 
L 3827 2144 
L 435 2144 
z
M 435 960 
L 435 1747 
L 3827 1747 
L 3827 960 
L 435 960 
z
" transform="scale(0.015625)"/>
     </defs>
     <use xlink:href="#AvenirNext-Bold-2b"/>
     <use xlink:href="#AvenirNext-Bold-35" x="66.599991"/>
     <use xlink:href="#AvenirNext-Bold-25" x="131.199982"/>
     <use xlink:href="#AvenirNext-Bold-20" x="222.299973"/>
     <use xlink:href="#AvenirNext-Bold-20" x="247.299957"/>
     <use xlink:href="#AvenirNext-Bold-7c" x="272.299942"/>
     <use xlink:href="#AvenirNext-Bold-20" x="296.399933"/>
     <use xlink:href="#AvenirNext-Bold-20" x="321.399918"/>
     <use xlink:href="#AvenirNext-Bold-6e" x="346.399902"/>
     <use xlink:href="#AvenirNext-Bold-3d" x="407.999893"/>
     <use xlink:href="#AvenirNext-Bold-34" x="474.599884"/>
    </g>
   </g>
   <g id="text_15">
    <!-- 4.00 -->
    <g style="fill: #6b7280" transform="translate(529.406996 244.267787) scale(0.1 -0.1)">
     <use xlink:href="#AvenirNext-Bold-34"/>
     <use xlink:href="#AvenirNext-Bold-2e" x="64.599991"/>
     <use xlink:href="#AvenirNext-Bold-30" x="94.599976"/>
     <use xlink:href="#AvenirNext-Bold-30" x="159.199966"/>
    </g>
   </g>
   <g id="text_16">
    <!-- 5.00 -->
    <g style="fill: #f59e0b" transform="translate(672.820486 244.267787) scale(0.1 -0.1)">
     <use xlink:href="#AvenirNext-Bold-35"/>
     <use xlink:href="#AvenirNext-Bold-2e" x="64.599991"/>
     <use xlink:href="#AvenirNext-Bold-30" x="94.599976"/>
     <use xlink:href="#AvenirNext-Bold-30" x="159.199966"/>
    </g>
   </g>
   <g id="text_17">
    <g id="patch_8">
     <path d="M 620.233465 235.8675 
L 683.627215 235.8675 
Q 687.302215 235.8675 687.302215 232.1925 
L 687.302215 221.6925 
Q 687.302215 218.0175 683.627215 218.0175 
L 620.233465 218.0175 
Q 616.558465 218.0175 616.558465 221.6925 
L 616.558465 232.1925 
Q 616.558465 235.8675 620.233465 235.8675 
z
" style="fill: #fff1d6"/>
    </g>
    <!-- +25%  |  n=5 -->
    <g style="fill: #231f20" transform="translate(620.233465 229.5675) scale(0.105 -0.105)">
     <use xlink:href="#AvenirNext-Bold-2b"/>
     <use xlink:href="#AvenirNext-Bold-32" x="66.599991"/>
     <use xlink:href="#AvenirNext-Bold-35" x="131.199982"/>
     <use xlink:href="#AvenirNext-Bold-25" x="195.799973"/>
     <use xlink:href="#AvenirNext-Bold-20" x="286.899963"/>
     <use xlink:href="#AvenirNext-Bold-20" x="311.899948"/>
     <use xlink:href="#AvenirNext-Bold-7c" x="336.899933"/>
     <use xlink:href="#AvenirNext-Bold-20" x="360.999924"/>
     <use xlink:href="#AvenirNext-Bold-20" x="385.999908"/>
     <use xlink:href="#AvenirNext-Bold-6e" x="410.999893"/>
     <use xlink:href="#AvenirNext-Bold-3d" x="472.599884"/>
     <use xlink:href="#AvenirNext-Bold-35" x="539.199875"/>
    </g>
   </g>
   <g id="text_18">
    <!-- 4.00 -->
    <g style="fill: #6b7280" transform="translate(529.406996 317.995787) scale(0.1 -0.1)">
     <use xlink:href="#AvenirNext-Bold-34"/>
     <use xlink:href="#AvenirNext-Bold-2e" x="64.599991"/>
     <use xlink:href="#AvenirNext-Bold-30" x="94.599976"/>
     <use xlink:href="#AvenirNext-Bold-30" x="159.199966"/>
    </g>
   </g>
   <g id="text_19">
    <!-- 4.67 -->
    <g style="fill: #f59e0b" transform="translate(636.798056 317.995787) scale(0.1 -0.1)">
     <defs>
      <path id="AvenirNext-Bold-36" d="M 3846 1523 
Q 3846 1139 3705 832 
Q 3565 525 3321 313 
Q 3078 102 2752 -10 
Q 2426 -122 2061 -122 
Q 1690 -122 1366 -10 
Q 1043 102 800 313 
Q 557 525 416 825 
Q 275 1126 275 1498 
Q 275 1901 416 2230 
Q 557 2560 781 2899 
L 1875 4531 
L 3174 4531 
L 2061 2982 
L 2042 2950 
Q 2106 2976 2195 2989 
Q 2285 3002 2362 3002 
Q 2656 3002 2928 2896 
Q 3200 2790 3401 2595 
Q 3603 2400 3724 2128 
Q 3846 1856 3846 1523 
z
M 2771 1498 
Q 2771 1805 2579 2006 
Q 2387 2208 2067 2208 
Q 1747 2208 1548 2009 
Q 1350 1811 1350 1491 
Q 1350 1197 1542 985 
Q 1734 774 2061 774 
Q 2381 774 2576 972 
Q 2771 1171 2771 1498 
z
" transform="scale(0.015625)"/>
     </defs>
     <use xlink:href="#AvenirNext-Bold-34"/>
     <use xlink:href="#AvenirNext-Bold-2e" x="64.599991"/>
     <use xlink:href="#AvenirNext-Bold-36" x="94.599976"/>
     <use xlink:href="#AvenirNext-Bold-37" x="159.199966"/>
    </g>
   </g>
   <g id="text_20">
    <g id="patch_9">
     <path d="M 620.233465 309.5955 
L 683.627215 309.5955 
Q 687.302215 309.5955 687.302215 305.9205 
L 687.302215 295.4205 
Q 687.302215 291.7455 683.627215 291.7455 
L 620.233465 291.7455 
Q 616.558465 291.7455 616.558465 295.4205 
L 616.558465 305.9205 
Q 616.558465 309.5955 620.233465 309.5955 
z
" style="fill: #fff1d6"/>
    </g>
    <!-- +17%  |  n=6 -->
    <g style="fill: #231f20" transform="translate(620.233465 303.2955) scale(0.105 -0.105)">
     <use xlink:href="#AvenirNext-Bold-2b"/>
     <use xlink:href="#AvenirNext-Bold-31" x="66.599991"/>
     <use xlink:href="#AvenirNext-Bold-37" x="131.199982"/>
     <use xlink:href="#AvenirNext-Bold-25" x="195.799973"/>
     <use xlink:href="#AvenirNext-Bold-20" x="286.899963"/>
     <use xlink:href="#AvenirNext-Bold-20" x="311.899948"/>
     <use xlink:href="#AvenirNext-Bold-7c" x="336.899933"/>
     <use xlink:href="#AvenirNext-Bold-20" x="360.999924"/>
     <use xlink:href="#AvenirNext-Bold-20" x="385.999908"/>
     <use xlink:href="#AvenirNext-Bold-6e" x="410.999893"/>
     <use xlink:href="#AvenirNext-Bold-3d" x="472.599884"/>
     <use xlink:href="#AvenirNext-Bold-36" x="539.199875"/>
    </g>
   </g>
   <g id="text_21">
    <!-- 4.20 -->
    <g style="fill: #6b7280" transform="translate(551.020454 391.723787) scale(0.1 -0.1)">
     <use xlink:href="#AvenirNext-Bold-34"/>
     <use xlink:href="#AvenirNext-Bold-2e" x="64.599991"/>
     <use xlink:href="#AvenirNext-Bold-32" x="94.599976"/>
     <use xlink:href="#AvenirNext-Bold-30" x="159.199966"/>
    </g>
   </g>
   <g id="text_22">
    <!-- 4.80 -->
    <g style="fill: #f59e0b" transform="translate(651.207028 391.723787) scale(0.1 -0.1)">
     <defs>
      <path id="AvenirNext-Bold-38" d="M 3770 1293 
Q 3770 934 3629 668 
Q 3488 403 3254 227 
Q 3021 51 2710 -35 
Q 2400 -122 2067 -122 
Q 1728 -122 1421 -35 
Q 1114 51 880 224 
Q 646 397 505 662 
Q 365 928 365 1286 
Q 365 1491 429 1667 
Q 493 1843 605 1980 
Q 717 2118 864 2217 
Q 1011 2317 1178 2368 
L 1178 2381 
Q 883 2490 684 2736 
Q 486 2982 486 3360 
Q 486 3674 614 3917 
Q 742 4160 960 4323 
Q 1178 4486 1466 4569 
Q 1754 4653 2067 4653 
Q 2381 4653 2665 4573 
Q 2950 4493 3168 4333 
Q 3386 4173 3517 3933 
Q 3648 3693 3648 3379 
Q 3648 3002 3456 2746 
Q 3264 2490 2957 2387 
L 2957 2368 
Q 3130 2317 3277 2217 
Q 3424 2118 3533 1980 
Q 3642 1843 3706 1667 
Q 3770 1491 3770 1293 
z
M 2611 3302 
Q 2611 3526 2451 3673 
Q 2291 3821 2067 3821 
Q 1824 3821 1677 3673 
Q 1530 3526 1530 3302 
Q 1530 3085 1674 2925 
Q 1818 2765 2067 2765 
Q 2304 2765 2457 2925 
Q 2611 3085 2611 3302 
z
M 2694 1331 
Q 2694 1594 2518 1770 
Q 2342 1946 2067 1946 
Q 1786 1946 1610 1773 
Q 1434 1600 1434 1331 
Q 1434 1056 1610 893 
Q 1786 730 2067 730 
Q 2349 730 2521 893 
Q 2694 1056 2694 1331 
z
" transform="scale(0.015625)"/>
     </defs>
     <use xlink:href="#AvenirNext-Bold-34"/>
     <use xlink:href="#AvenirNext-Bold-2e" x="64.599991"/>
     <use xlink:href="#AvenirNext-Bold-38" x="94.599976"/>
     <use xlink:href="#AvenirNext-Bold-30" x="159.199966"/>
    </g>
   </g>
   <g id="text_23">
    <g id="patch_10">
     <path d="M 620.233465 383.3235 
L 683.627215 383.3235 
Q 687.302215 383.3235 687.302215 379.6485 
L 687.302215 369.1485 
Q 687.302215 365.4735 683.627215 365.4735 
L 620.233465 365.4735 
Q 616.558465 365.4735 616.558465 369.1485 
L 616.558465 379.6485 
Q 616.558465 383.3235 620.233465 383.3235 
z
" style="fill: #fff1d6"/>
    </g>
    <!-- +14%  |  n=1 -->
    <g style="fill: #231f20" transform="translate(620.233465 377.0235) scale(0.105 -0.105)">
     <use xlink:href="#AvenirNext-Bold-2b"/>
     <use xlink:href="#AvenirNext-Bold-31" x="66.599991"/>
     <use xlink:href="#AvenirNext-Bold-34" x="131.199982"/>
     <use xlink:href="#AvenirNext-Bold-25" x="195.799973"/>
     <use xlink:href="#AvenirNext-Bold-20" x="286.899963"/>
     <use xlink:href="#AvenirNext-Bold-20" x="311.899948"/>
     <use xlink:href="#AvenirNext-Bold-7c" x="336.899933"/>
     <use xlink:href="#AvenirNext-Bold-20" x="360.999924"/>
     <use xlink:href="#AvenirNext-Bold-20" x="385.999908"/>
     <use xlink:href="#AvenirNext-Bold-6e" x="410.999893"/>
     <use xlink:href="#AvenirNext-Bold-3d" x="472.599884"/>
     <use xlink:href="#AvenirNext-Bold-31" x="539.199875"/>
    </g>
   </g>
  </g>
  <g id="text_24">
   <!-- Average Score by Category -->
   <g style="fill: #231f20" transform="translate(7.2 25.3425) scale(0.24 -0.24)">
    <defs>
     <path id="AvenirNext-Bold-62" d="M 3962 1606 
Q 3962 1274 3859 966 
Q 3757 659 3561 425 
Q 3366 192 3084 51 
Q 2803 -90 2445 -90 
Q 2125 -90 1840 41 
Q 1555 173 1402 416 
L 1389 416 
L 1389 0 
L 422 0 
L 422 4838 
L 1472 4838 
L 1472 2848 
L 1485 2848 
Q 1619 3008 1862 3142 
Q 2106 3277 2458 3277 
Q 2803 3277 3081 3142 
Q 3360 3008 3555 2777 
Q 3750 2547 3856 2243 
Q 3962 1939 3962 1606 
z
M 2950 1606 
Q 2950 1760 2902 1907 
Q 2854 2054 2758 2166 
Q 2662 2278 2521 2348 
Q 2381 2419 2195 2419 
Q 2016 2419 1875 2348 
Q 1734 2278 1635 2163 
Q 1536 2048 1481 1901 
Q 1427 1754 1427 1600 
Q 1427 1446 1481 1299 
Q 1536 1152 1635 1037 
Q 1734 922 1875 851 
Q 2016 781 2195 781 
Q 2381 781 2521 851 
Q 2662 922 2758 1037 
Q 2854 1152 2902 1302 
Q 2950 1453 2950 1606 
z
" transform="scale(0.015625)"/>
    </defs>
    <use xlink:href="#AvenirNext-Bold-41"/>
    <use xlink:href="#AvenirNext-Bold-76" x="72.899994"/>
    <use xlink:href="#AvenirNext-Bold-65" x="129.599991"/>
    <use xlink:href="#AvenirNext-Bold-72" x="189.199982"/>
    <use xlink:href="#AvenirNext-Bold-61" x="227.174973"/>
    <use xlink:href="#AvenirNext-Bold-67" x="283.774963"/>
    <use xlink:href="#AvenirNext-Bold-65" x="349.574951"/>
    <use xlink:href="#AvenirNext-Bold-20" x="409.174942"/>
    <use xlink:href="#AvenirNext-Bold-53" x="434.174927"/>
    <use xlink:href="#AvenirNext-Bold-63" x="493.274918"/>
    <use xlink:href="#AvenirNext-Bold-6f" x="543.574905"/>
    <use xlink:href="#AvenirNext-Bold-72" x="606.774902"/>
    <use xlink:href="#AvenirNext-Bold-65" x="644.624893"/>
    <use xlink:href="#AvenirNext-Bold-20" x="704.224884"/>
    <use xlink:href="#AvenirNext-Bold-62" x="729.224869"/>
    <use xlink:href="#AvenirNext-Bold-79" x="795.124863"/>
    <use xlink:href="#AvenirNext-Bold-20" x="851.82486"/>
    <use xlink:href="#AvenirNext-Bold-43" x="876.824844"/>
    <use xlink:href="#AvenirNext-Bold-61" x="944.674835"/>
    <use xlink:href="#AvenirNext-Bold-74" x="1001.274826"/>
    <use xlink:href="#AvenirNext-Bold-65" x="1038.474823"/>
    <use xlink:href="#AvenirNext-Bold-67" x="1098.074814"/>
    <use xlink:href="#AvenirNext-Bold-6f" x="1163.874802"/>
    <use xlink:href="#AvenirNext-Bold-72" x="1227.074799"/>
    <use xlink:href="#AvenirNext-Bold-79" x="1266.674789"/>
   </g>
  </g>
  <g id="text_25">
   <!-- ForgeMySpec stays ahead in every category, with the sharpest lift in medium-complexity work. -->
   <g style="fill: #6e6259" transform="translate(7.2 48.6705) scale(0.125 -0.125)">
    <defs>
     <path id="AvenirNext-Bold-46" d="M 1549 3597 
L 1549 2662 
L 3302 2662 
L 3302 1760 
L 1549 1760 
L 1549 0 
L 467 0 
L 467 4531 
L 3450 4531 
L 3450 3597 
L 1549 3597 
z
" transform="scale(0.015625)"/>
     <path id="AvenirNext-Bold-68" d="M 2509 0 
L 2509 1728 
Q 2509 1862 2489 1984 
Q 2470 2106 2416 2198 
Q 2362 2291 2272 2345 
Q 2182 2400 2042 2400 
Q 1766 2400 1619 2205 
Q 1472 2010 1472 1722 
L 1472 0 
L 422 0 
L 422 4838 
L 1472 4838 
L 1472 2784 
L 1485 2784 
Q 1594 2976 1830 3126 
Q 2067 3277 2400 3277 
Q 2726 3277 2947 3161 
Q 3168 3046 3305 2864 
Q 3443 2682 3504 2445 
Q 3565 2208 3565 1971 
L 3565 0 
L 2509 0 
z
" transform="scale(0.015625)"/>
     <path id="AvenirNext-Bold-2c" d="M 992 -794 
L 128 -794 
L 608 1024 
L 1613 1024 
L 992 -794 
z
" transform="scale(0.015625)"/>
     <path id="AvenirNext-Bold-77" d="M 4467 0 
L 3411 0 
L 2784 1984 
L 2771 1984 
L 2157 0 
L 1101 0 
L 0 3187 
L 1133 3187 
L 1683 1171 
L 1702 1171 
L 2272 3187 
L 3328 3187 
L 3917 1171 
L 3930 1171 
L 4486 3187 
L 5574 3187 
L 4467 0 
z
" transform="scale(0.015625)"/>
     <path id="AvenirNext-Bold-2d" d="M 230 1261 
L 230 2093 
L 1856 2093 
L 1856 1261 
L 230 1261 
z
" transform="scale(0.015625)"/>
     <path id="AvenirNext-Bold-6b" d="M 3834 0 
L 2534 0 
L 1491 1530 
L 1472 1530 
L 1472 0 
L 416 0 
L 416 4838 
L 1472 4838 
L 1472 1894 
L 1491 1894 
L 2509 3187 
L 3782 3187 
L 2554 1747 
L 3834 0 
z
" transform="scale(0.015625)"/>
    </defs>
    <use xlink:href="#AvenirNext-Bold-46"/>
    <use xlink:href="#AvenirNext-Bold-6f" x="52.849991"/>
    <use xlink:href="#AvenirNext-Bold-72" x="116.049988"/>
    <use xlink:href="#AvenirNext-Bold-67" x="153.899979"/>
    <use xlink:href="#AvenirNext-Bold-65" x="219.699966"/>
    <use xlink:href="#AvenirNext-Bold-4d" x="279.299957"/>
    <use xlink:href="#AvenirNext-Bold-79" x="374.799942"/>
    <use xlink:href="#AvenirNext-Bold-53" x="431.499939"/>
    <use xlink:href="#AvenirNext-Bold-70" x="490.59993"/>
    <use xlink:href="#AvenirNext-Bold-65" x="556.299927"/>
    <use xlink:href="#AvenirNext-Bold-63" x="615.899918"/>
    <use xlink:href="#AvenirNext-Bold-20" x="666.199905"/>
    <use xlink:href="#AvenirNext-Bold-73" x="691.19989"/>
    <use xlink:href="#AvenirNext-Bold-74" x="738.399887"/>
    <use xlink:href="#AvenirNext-Bold-61" x="775.599884"/>
    <use xlink:href="#AvenirNext-Bold-79" x="832.199875"/>
    <use xlink:href="#AvenirNext-Bold-73" x="888.899872"/>
    <use xlink:href="#AvenirNext-Bold-20" x="936.099869"/>
    <use xlink:href="#AvenirNext-Bold-61" x="961.099854"/>
    <use xlink:href="#AvenirNext-Bold-68" x="1017.699844"/>
    <use xlink:href="#AvenirNext-Bold-65" x="1079.399841"/>
    <use xlink:href="#AvenirNext-Bold-61" x="1138.999832"/>
    <use xlink:href="#AvenirNext-Bold-64" x="1195.599823"/>
    <use xlink:href="#AvenirNext-Bold-20" x="1261.399811"/>
    <use xlink:href="#AvenirNext-Bold-69" x="1286.399796"/>
    <use xlink:href="#AvenirNext-Bold-6e" x="1315.999786"/>
    <use xlink:href="#AvenirNext-Bold-20" x="1377.599777"/>
    <use xlink:href="#AvenirNext-Bold-65" x="1402.599762"/>
    <use xlink:href="#AvenirNext-Bold-76" x="1462.199753"/>
    <use xlink:href="#AvenirNext-Bold-65" x="1518.89975"/>
    <use xlink:href="#AvenirNext-Bold-72" x="1578.499741"/>
    <use xlink:href="#AvenirNext-Bold-79" x="1618.099731"/>
    <use xlink:href="#AvenirNext-Bold-20" x="1674.799728"/>
    <use xlink:href="#AvenirNext-Bold-63" x="1699.799713"/>
    <use xlink:href="#AvenirNext-Bold-61" x="1750.099701"/>
    <use xlink:href="#AvenirNext-Bold-74" x="1806.699692"/>
    <use xlink:href="#AvenirNext-Bold-65" x="1843.899689"/>
    <use xlink:href="#AvenirNext-Bold-67" x="1903.49968"/>
    <use xlink:href="#AvenirNext-Bold-6f" x="1969.299667"/>
    <use xlink:href="#AvenirNext-Bold-72" x="2032.499664"/>
    <use xlink:href="#AvenirNext-Bold-79" x="2072.099655"/>
    <use xlink:href="#AvenirNext-Bold-2c" x="2125.174652"/>
    <use xlink:href="#AvenirNext-Bold-20" x="2152.174637"/>
    <use xlink:href="#AvenirNext-Bold-77" x="2177.174622"/>
    <use xlink:href="#AvenirNext-Bold-69" x="2264.274612"/>
    <use xlink:href="#AvenirNext-Bold-74" x="2293.874603"/>
    <use xlink:href="#AvenirNext-Bold-68" x="2331.0746"/>
    <use xlink:href="#AvenirNext-Bold-20" x="2392.774597"/>
    <use xlink:href="#AvenirNext-Bold-74" x="2417.774582"/>
    <use xlink:href="#AvenirNext-Bold-68" x="2454.974579"/>
    <use xlink:href="#AvenirNext-Bold-65" x="2516.674576"/>
    <use xlink:href="#AvenirNext-Bold-20" x="2576.274567"/>
    <use xlink:href="#AvenirNext-Bold-73" x="2601.274551"/>
    <use xlink:href="#AvenirNext-Bold-68" x="2648.474548"/>
    <use xlink:href="#AvenirNext-Bold-61" x="2710.174545"/>
    <use xlink:href="#AvenirNext-Bold-72" x="2766.774536"/>
    <use xlink:href="#AvenirNext-Bold-70" x="2806.374527"/>
    <use xlink:href="#AvenirNext-Bold-65" x="2872.074524"/>
    <use xlink:href="#AvenirNext-Bold-73" x="2931.674515"/>
    <use xlink:href="#AvenirNext-Bold-74" x="2978.874512"/>
    <use xlink:href="#AvenirNext-Bold-20" x="3016.074509"/>
    <use xlink:href="#AvenirNext-Bold-6c" x="3041.074493"/>
    <use xlink:href="#AvenirNext-Bold-69" x="3070.874481"/>
    <use xlink:href="#AvenirNext-Bold-66" x="3100.474472"/>
    <use xlink:href="#AvenirNext-Bold-74" x="3134.499466"/>
    <use xlink:href="#AvenirNext-Bold-20" x="3171.699463"/>
    <use xlink:href="#AvenirNext-Bold-69" x="3196.699448"/>
    <use xlink:href="#AvenirNext-Bold-6e" x="3226.299438"/>
    <use xlink:href="#AvenirNext-Bold-20" x="3287.899429"/>
    <use xlink:href="#AvenirNext-Bold-6d" x="3312.899414"/>
    <use xlink:href="#AvenirNext-Bold-65" x="3405.299408"/>
    <use xlink:href="#AvenirNext-Bold-64" x="3464.899399"/>
    <use xlink:href="#AvenirNext-Bold-69" x="3530.699387"/>
    <use xlink:href="#AvenirNext-Bold-75" x="3560.299377"/>
    <use xlink:href="#AvenirNext-Bold-6d" x="3621.699371"/>
    <use xlink:href="#AvenirNext-Bold-2d" x="3714.099365"/>
    <use xlink:href="#AvenirNext-Bold-63" x="3746.699356"/>
    <use xlink:href="#AvenirNext-Bold-6f" x="3796.999344"/>
    <use xlink:href="#AvenirNext-Bold-6d" x="3860.199341"/>
    <use xlink:href="#AvenirNext-Bold-70" x="3952.599335"/>
    <use xlink:href="#AvenirNext-Bold-6c" x="4018.299332"/>
    <use xlink:href="#AvenirNext-Bold-65" x="4048.099319"/>
    <use xlink:href="#AvenirNext-Bold-78" x="4105.44931"/>
    <use xlink:href="#AvenirNext-Bold-69" x="4164.849304"/>
    <use xlink:href="#AvenirNext-Bold-74" x="4194.449295"/>
    <use xlink:href="#AvenirNext-Bold-79" x="4231.649292"/>
    <use xlink:href="#AvenirNext-Bold-20" x="4288.349289"/>
    <use xlink:href="#AvenirNext-Bold-77" x="4313.349274"/>
    <use xlink:href="#AvenirNext-Bold-6f" x="4400.449265"/>
    <use xlink:href="#AvenirNext-Bold-72" x="4463.649261"/>
    <use xlink:href="#AvenirNext-Bold-6b" x="4503.249252"/>
    <use xlink:href="#AvenirNext-Bold-2e" x="4562.749237"/>
   </g>
  </g>
  <g id="text_26">
   <!-- WITHOUT spec -->
   <g style="fill: #6b7280" transform="translate(7.2 77.1825) scale(0.11 -0.11)">
    <defs>
     <path id="AvenirNext-Bold-57" d="M 5267 0 
L 4186 0 
L 3290 3066 
L 3270 3066 
L 2374 0 
L 1286 0 
L 0 4531 
L 1178 4531 
L 1894 1517 
L 1914 1517 
L 2720 4531 
L 3859 4531 
L 4672 1517 
L 4691 1517 
L 5421 4531 
L 6560 4531 
L 5267 0 
z
" transform="scale(0.015625)"/>
     <path id="AvenirNext-Bold-49" d="M 467 0 
L 467 4531 
L 1568 4531 
L 1568 0 
L 467 0 
z
" transform="scale(0.015625)"/>
     <path id="AvenirNext-Bold-54" d="M 2406 3597 
L 2406 0 
L 1312 0 
L 1312 3597 
L 32 3597 
L 32 4531 
L 3686 4531 
L 3686 3597 
L 2406 3597 
z
" transform="scale(0.015625)"/>
     <path id="AvenirNext-Bold-48" d="M 3328 0 
L 3328 1894 
L 1562 1894 
L 1562 0 
L 467 0 
L 467 4531 
L 1562 4531 
L 1562 2816 
L 3328 2816 
L 3328 4531 
L 4422 4531 
L 4422 0 
L 3328 0 
z
" transform="scale(0.015625)"/>
     <path id="AvenirNext-Bold-4f" d="M 5190 2285 
Q 5190 1747 5004 1302 
Q 4819 858 4489 541 
Q 4160 224 3705 51 
Q 3251 -122 2720 -122 
Q 2189 -122 1737 51 
Q 1286 224 956 541 
Q 627 858 441 1302 
Q 256 1747 256 2285 
Q 256 2829 441 3267 
Q 627 3706 956 4013 
Q 1286 4320 1737 4486 
Q 2189 4653 2720 4653 
Q 3251 4653 3705 4486 
Q 4160 4320 4489 4013 
Q 4819 3706 5004 3267 
Q 5190 2829 5190 2285 
z
M 4019 2285 
Q 4019 2579 3923 2835 
Q 3827 3091 3657 3273 
Q 3488 3456 3248 3561 
Q 3008 3667 2720 3667 
Q 2432 3667 2195 3561 
Q 1958 3456 1785 3273 
Q 1613 3091 1520 2835 
Q 1427 2579 1427 2285 
Q 1427 1978 1523 1718 
Q 1619 1459 1788 1273 
Q 1958 1088 2195 982 
Q 2432 877 2720 877 
Q 3008 877 3245 982 
Q 3482 1088 3654 1273 
Q 3827 1459 3923 1718 
Q 4019 1978 4019 2285 
z
" transform="scale(0.015625)"/>
     <path id="AvenirNext-Bold-55" d="M 4307 1709 
Q 4307 1299 4169 963 
Q 4032 627 3776 387 
Q 3520 147 3158 12 
Q 2797 -122 2355 -122 
Q 1907 -122 1548 12 
Q 1190 147 940 387 
Q 691 627 556 963 
Q 422 1299 422 1709 
L 422 4531 
L 1510 4531 
L 1510 1798 
Q 1510 1613 1558 1446 
Q 1606 1280 1705 1149 
Q 1805 1018 1968 941 
Q 2131 864 2362 864 
Q 2592 864 2755 941 
Q 2918 1018 3020 1149 
Q 3123 1280 3168 1446 
Q 3213 1613 3213 1798 
L 3213 4531 
L 4307 4531 
L 4307 1709 
L 4307 1709 
z
" transform="scale(0.015625)"/>
    </defs>
    <use xlink:href="#AvenirNext-Bold-57"/>
    <use xlink:href="#AvenirNext-Bold-49" x="102.499985"/>
    <use xlink:href="#AvenirNext-Bold-54" x="134.299973"/>
    <use xlink:href="#AvenirNext-Bold-48" x="192.399963"/>
    <use xlink:href="#AvenirNext-Bold-4f" x="268.799957"/>
    <use xlink:href="#AvenirNext-Bold-55" x="353.899948"/>
    <use xlink:href="#AvenirNext-Bold-54" x="427.699936"/>
    <use xlink:href="#AvenirNext-Bold-20" x="483.424927"/>
    <use xlink:href="#AvenirNext-Bold-73" x="508.424911"/>
    <use xlink:href="#AvenirNext-Bold-70" x="555.624908"/>
    <use xlink:href="#AvenirNext-Bold-65" x="621.324905"/>
    <use xlink:href="#AvenirNext-Bold-63" x="680.924896"/>
   </g>
  </g>
  <g id="text_27">
   <!-- WITH spec -->
   <g style="fill: #f59e0b" transform="translate(102.24 77.1825) scale(0.11 -0.11)">
    <use xlink:href="#AvenirNext-Bold-57"/>
    <use xlink:href="#AvenirNext-Bold-49" x="102.499985"/>
    <use xlink:href="#AvenirNext-Bold-54" x="134.299973"/>
    <use xlink:href="#AvenirNext-Bold-48" x="192.399963"/>
    <use xlink:href="#AvenirNext-Bold-20" x="268.799957"/>
    <use xlink:href="#AvenirNext-Bold-73" x="293.799942"/>
    <use xlink:href="#AvenirNext-Bold-70" x="340.999939"/>
    <use xlink:href="#AvenirNext-Bold-65" x="406.699936"/>
    <use xlink:href="#AvenirNext-Bold-63" x="466.299927"/>
   </g>
  </g>
  <g id="text_28">
   <!-- Each connector shows the score lift from direct implementation to spec-driven execution. -->
   <g style="fill: #6e6259" transform="translate(173.52 77.1825) scale(0.11 -0.11)">
    <defs>
     <path id="AvenirNext-Bold-45" d="M 467 0 
L 467 4531 
L 3514 4531 
L 3514 3603 
L 1523 3603 
L 1523 2752 
L 3405 2752 
L 3405 1875 
L 1523 1875 
L 1523 934 
L 3629 934 
L 3629 0 
L 467 0 
z
" transform="scale(0.015625)"/>
    </defs>
    <use xlink:href="#AvenirNext-Bold-45"/>
    <use xlink:href="#AvenirNext-Bold-61" x="60.699997"/>
    <use xlink:href="#AvenirNext-Bold-63" x="117.299988"/>
    <use xlink:href="#AvenirNext-Bold-68" x="167.599976"/>
    <use xlink:href="#AvenirNext-Bold-20" x="229.299973"/>
    <use xlink:href="#AvenirNext-Bold-63" x="254.299957"/>
    <use xlink:href="#AvenirNext-Bold-6f" x="304.599945"/>
    <use xlink:href="#AvenirNext-Bold-6e" x="367.799942"/>
    <use xlink:href="#AvenirNext-Bold-6e" x="429.399933"/>
    <use xlink:href="#AvenirNext-Bold-65" x="490.999924"/>
    <use xlink:href="#AvenirNext-Bold-63" x="550.599915"/>
    <use xlink:href="#AvenirNext-Bold-74" x="600.899902"/>
    <use xlink:href="#AvenirNext-Bold-6f" x="638.099899"/>
    <use xlink:href="#AvenirNext-Bold-72" x="701.299896"/>
    <use xlink:href="#AvenirNext-Bold-20" x="740.899887"/>
    <use xlink:href="#AvenirNext-Bold-73" x="765.899872"/>
    <use xlink:href="#AvenirNext-Bold-68" x="813.099869"/>
    <use xlink:href="#AvenirNext-Bold-6f" x="874.799866"/>
    <use xlink:href="#AvenirNext-Bold-77" x="937.999863"/>
    <use xlink:href="#AvenirNext-Bold-73" x="1025.099854"/>
    <use xlink:href="#AvenirNext-Bold-20" x="1072.29985"/>
    <use xlink:href="#AvenirNext-Bold-74" x="1097.299835"/>
    <use xlink:href="#AvenirNext-Bold-68" x="1134.499832"/>
    <use xlink:href="#AvenirNext-Bold-65" x="1196.199829"/>
    <use xlink:href="#AvenirNext-Bold-20" x="1255.79982"/>
    <use xlink:href="#AvenirNext-Bold-73" x="1280.799805"/>
    <use xlink:href="#AvenirNext-Bold-63" x="1327.999802"/>
    <use xlink:href="#AvenirNext-Bold-6f" x="1378.299789"/>
    <use xlink:href="#AvenirNext-Bold-72" x="1441.499786"/>
    <use xlink:href="#AvenirNext-Bold-65" x="1479.349777"/>
    <use xlink:href="#AvenirNext-Bold-20" x="1538.949768"/>
    <use xlink:href="#AvenirNext-Bold-6c" x="1563.949753"/>
    <use xlink:href="#AvenirNext-Bold-69" x="1593.749741"/>
    <use xlink:href="#AvenirNext-Bold-66" x="1623.349731"/>
    <use xlink:href="#AvenirNext-Bold-74" x="1657.374725"/>
    <use xlink:href="#AvenirNext-Bold-20" x="1694.574722"/>
    <use xlink:href="#AvenirNext-Bold-66" x="1719.574707"/>
    <use xlink:href="#AvenirNext-Bold-72" x="1755.974701"/>
    <use xlink:href="#AvenirNext-Bold-6f" x="1793.824692"/>
    <use xlink:href="#AvenirNext-Bold-6d" x="1857.024689"/>
    <use xlink:href="#AvenirNext-Bold-20" x="1949.424683"/>
    <use xlink:href="#AvenirNext-Bold-64" x="1974.424667"/>
    <use xlink:href="#AvenirNext-Bold-69" x="2040.224655"/>
    <use xlink:href="#AvenirNext-Bold-72" x="2069.824646"/>
    <use xlink:href="#AvenirNext-Bold-65" x="2107.674637"/>
    <use xlink:href="#AvenirNext-Bold-63" x="2167.274628"/>
    <use xlink:href="#AvenirNext-Bold-74" x="2217.574615"/>
    <use xlink:href="#AvenirNext-Bold-20" x="2254.774612"/>
    <use xlink:href="#AvenirNext-Bold-69" x="2279.774597"/>
    <use xlink:href="#AvenirNext-Bold-6d" x="2309.374588"/>
    <use xlink:href="#AvenirNext-Bold-70" x="2401.774582"/>
    <use xlink:href="#AvenirNext-Bold-6c" x="2467.474579"/>
    <use xlink:href="#AvenirNext-Bold-65" x="2497.274567"/>
    <use xlink:href="#AvenirNext-Bold-6d" x="2556.874557"/>
    <use xlink:href="#AvenirNext-Bold-65" x="2649.274551"/>
    <use xlink:href="#AvenirNext-Bold-6e" x="2708.874542"/>
    <use xlink:href="#AvenirNext-Bold-74" x="2770.474533"/>
    <use xlink:href="#AvenirNext-Bold-61" x="2807.67453"/>
    <use xlink:href="#AvenirNext-Bold-74" x="2864.274521"/>
    <use xlink:href="#AvenirNext-Bold-69" x="2901.474518"/>
    <use xlink:href="#AvenirNext-Bold-6f" x="2931.074509"/>
    <use xlink:href="#AvenirNext-Bold-6e" x="2994.274506"/>
    <use xlink:href="#AvenirNext-Bold-20" x="3055.874496"/>
    <use xlink:href="#AvenirNext-Bold-74" x="3080.874481"/>
    <use xlink:href="#AvenirNext-Bold-6f" x="3118.074478"/>
    <use xlink:href="#AvenirNext-Bold-20" x="3181.274475"/>
    <use xlink:href="#AvenirNext-Bold-73" x="3206.27446"/>
    <use xlink:href="#AvenirNext-Bold-70" x="3253.474457"/>
    <use xlink:href="#AvenirNext-Bold-65" x="3319.174454"/>
    <use xlink:href="#AvenirNext-Bold-63" x="3378.774445"/>
    <use xlink:href="#AvenirNext-Bold-2d" x="3429.074432"/>
    <use xlink:href="#AvenirNext-Bold-64" x="3461.674423"/>
    <use xlink:href="#AvenirNext-Bold-72" x="3527.474411"/>
    <use xlink:href="#AvenirNext-Bold-69" x="3567.074402"/>
    <use xlink:href="#AvenirNext-Bold-76" x="3596.674393"/>
    <use xlink:href="#AvenirNext-Bold-65" x="3653.37439"/>
    <use xlink:href="#AvenirNext-Bold-6e" x="3712.97438"/>
    <use xlink:href="#AvenirNext-Bold-20" x="3774.574371"/>
    <use xlink:href="#AvenirNext-Bold-65" x="3799.574356"/>
    <use xlink:href="#AvenirNext-Bold-78" x="3856.924347"/>
    <use xlink:href="#AvenirNext-Bold-65" x="3914.074341"/>
    <use xlink:href="#AvenirNext-Bold-63" x="3973.674332"/>
    <use xlink:href="#AvenirNext-Bold-75" x="4023.974319"/>
    <use xlink:href="#AvenirNext-Bold-74" x="4085.374313"/>
    <use xlink:href="#AvenirNext-Bold-69" x="4122.57431"/>
    <use xlink:href="#AvenirNext-Bold-6f" x="4152.174301"/>
    <use xlink:href="#AvenirNext-Bold-6e" x="4215.374298"/>
    <use xlink:href="#AvenirNext-Bold-2e" x="4276.974289"/>
   </g>
  </g>
  <g id="text_29">
   <!-- Scores use the 0–5 quality rubric across 16 benchmark projects. -->
   <g style="fill: #6e6259" transform="translate(7.2 473.7585) scale(0.1 -0.1)">
    <defs>
     <path id="AvenirNext-Bold-2013" d="M 192 1344 
L 192 2003 
L 2368 2003 
L 2368 1344 
L 192 1344 
z
" transform="scale(0.015625)"/>
     <path id="AvenirNext-Bold-71" d="M 2746 -1536 
L 2746 352 
L 2733 352 
Q 2579 147 2320 28 
Q 2061 -90 1766 -90 
Q 1402 -90 1120 51 
Q 838 192 646 425 
Q 454 659 352 966 
Q 250 1274 250 1606 
Q 250 1939 355 2243 
Q 461 2547 656 2777 
Q 851 3008 1129 3142 
Q 1408 3277 1754 3277 
Q 2112 3277 2371 3133 
Q 2630 2989 2778 2797 
L 2797 2797 
L 2797 3187 
L 3789 3187 
L 3789 -1536 
L 2746 -1536 
z
M 2784 1600 
Q 2784 1754 2729 1901 
Q 2675 2048 2576 2163 
Q 2477 2278 2336 2348 
Q 2195 2419 2016 2419 
Q 1830 2419 1689 2348 
Q 1549 2278 1453 2166 
Q 1357 2054 1309 1907 
Q 1261 1760 1261 1606 
Q 1261 1453 1309 1302 
Q 1357 1152 1453 1037 
Q 1549 922 1689 851 
Q 1830 781 2016 781 
Q 2195 781 2336 851 
Q 2477 922 2576 1037 
Q 2675 1152 2729 1299 
Q 2784 1446 2784 1600 
z
" transform="scale(0.015625)"/>
     <path id="AvenirNext-Bold-6a" d="M 1568 4205 
Q 1568 4083 1520 3977 
Q 1472 3872 1392 3795 
Q 1312 3718 1200 3673 
Q 1088 3629 966 3629 
Q 710 3629 537 3798 
Q 365 3968 365 4205 
Q 365 4320 409 4425 
Q 454 4531 537 4608 
Q 621 4685 729 4733 
Q 838 4781 966 4781 
Q 1088 4781 1200 4736 
Q 1312 4691 1392 4614 
Q 1472 4538 1520 4432 
Q 1568 4326 1568 4205 
z
M 1491 -83 
Q 1491 -378 1436 -643 
Q 1382 -909 1241 -1107 
Q 1101 -1306 851 -1421 
Q 602 -1536 218 -1536 
Q 109 -1536 -19 -1523 
Q -147 -1510 -237 -1485 
L -166 -608 
Q -109 -627 -48 -633 
Q 13 -640 58 -640 
Q 288 -640 365 -483 
Q 442 -326 442 -83 
L 442 3187 
L 1491 3187 
L 1491 -83 
z
" transform="scale(0.015625)"/>
    </defs>
    <use xlink:href="#AvenirNext-Bold-53"/>
    <use xlink:href="#AvenirNext-Bold-63" x="59.099991"/>
    <use xlink:href="#AvenirNext-Bold-6f" x="109.399979"/>
    <use xlink:href="#AvenirNext-Bold-72" x="172.599976"/>
    <use xlink:href="#AvenirNext-Bold-65" x="210.449966"/>
    <use xlink:href="#AvenirNext-Bold-73" x="270.049957"/>
    <use xlink:href="#AvenirNext-Bold-20" x="317.249954"/>
    <use xlink:href="#AvenirNext-Bold-75" x="342.249939"/>
    <use xlink:href="#AvenirNext-Bold-73" x="403.649933"/>
    <use xlink:href="#AvenirNext-Bold-65" x="450.84993"/>
    <use xlink:href="#AvenirNext-Bold-20" x="510.449921"/>
    <use xlink:href="#AvenirNext-Bold-74" x="535.449905"/>
    <use xlink:href="#AvenirNext-Bold-68" x="572.649902"/>
    <use xlink:href="#AvenirNext-Bold-65" x="634.349899"/>
    <use xlink:href="#AvenirNext-Bold-20" x="693.94989"/>
    <use xlink:href="#AvenirNext-Bold-30" x="718.949875"/>
    <use xlink:href="#AvenirNext-Bold-2013" x="783.549866"/>
    <use xlink:href="#AvenirNext-Bold-35" x="823.54985"/>
    <use xlink:href="#AvenirNext-Bold-20" x="888.149841"/>
    <use xlink:href="#AvenirNext-Bold-71" x="913.149826"/>
    <use xlink:href="#AvenirNext-Bold-75" x="978.849823"/>
    <use xlink:href="#AvenirNext-Bold-61" x="1040.249817"/>
    <use xlink:href="#AvenirNext-Bold-6c" x="1096.849808"/>
    <use xlink:href="#AvenirNext-Bold-69" x="1126.649796"/>
    <use xlink:href="#AvenirNext-Bold-74" x="1156.249786"/>
    <use xlink:href="#AvenirNext-Bold-79" x="1193.449783"/>
    <use xlink:href="#AvenirNext-Bold-20" x="1250.14978"/>
    <use xlink:href="#AvenirNext-Bold-72" x="1275.149765"/>
    <use xlink:href="#AvenirNext-Bold-75" x="1314.749756"/>
    <use xlink:href="#AvenirNext-Bold-62" x="1376.14975"/>
    <use xlink:href="#AvenirNext-Bold-72" x="1442.049744"/>
    <use xlink:href="#AvenirNext-Bold-69" x="1481.649734"/>
    <use xlink:href="#AvenirNext-Bold-63" x="1511.249725"/>
    <use xlink:href="#AvenirNext-Bold-20" x="1561.549713"/>
    <use xlink:href="#AvenirNext-Bold-61" x="1586.549698"/>
    <use xlink:href="#AvenirNext-Bold-63" x="1643.149689"/>
    <use xlink:href="#AvenirNext-Bold-72" x="1693.449677"/>
    <use xlink:href="#AvenirNext-Bold-6f" x="1731.299667"/>
    <use xlink:href="#AvenirNext-Bold-73" x="1794.499664"/>
    <use xlink:href="#AvenirNext-Bold-73" x="1841.699661"/>
    <use xlink:href="#AvenirNext-Bold-20" x="1888.899658"/>
    <use xlink:href="#AvenirNext-Bold-31" x="1913.899643"/>
    <use xlink:href="#AvenirNext-Bold-36" x="1978.499634"/>
    <use xlink:href="#AvenirNext-Bold-20" x="2043.099625"/>
    <use xlink:href="#AvenirNext-Bold-62" x="2068.099609"/>
    <use xlink:href="#AvenirNext-Bold-65" x="2133.999603"/>
    <use xlink:href="#AvenirNext-Bold-6e" x="2193.599594"/>
    <use xlink:href="#AvenirNext-Bold-63" x="2255.199585"/>
    <use xlink:href="#AvenirNext-Bold-68" x="2305.499573"/>
    <use xlink:href="#AvenirNext-Bold-6d" x="2367.19957"/>
    <use xlink:href="#AvenirNext-Bold-61" x="2459.599564"/>
    <use xlink:href="#AvenirNext-Bold-72" x="2516.199554"/>
    <use xlink:href="#AvenirNext-Bold-6b" x="2555.799545"/>
    <use xlink:href="#AvenirNext-Bold-20" x="2615.29953"/>
    <use xlink:href="#AvenirNext-Bold-70" x="2640.299515"/>
    <use xlink:href="#AvenirNext-Bold-72" x="2705.999512"/>
    <use xlink:href="#AvenirNext-Bold-6f" x="2743.849503"/>
    <use xlink:href="#AvenirNext-Bold-6a" x="2807.0495"/>
    <use xlink:href="#AvenirNext-Bold-65" x="2836.949493"/>
    <use xlink:href="#AvenirNext-Bold-63" x="2896.549484"/>
    <use xlink:href="#AvenirNext-Bold-74" x="2946.849472"/>
    <use xlink:href="#AvenirNext-Bold-73" x="2984.049469"/>
    <use xlink:href="#AvenirNext-Bold-2e" x="3031.249466"/>
   </g>
  </g>
 </g>
 <defs>
  <clipPath id="p0dfc51d7bf">
   <rect x="126" y="97.9185" width="578.16" height="331.776"/>
  </clipPath>
 </defs>
</svg>
